<?xml version="1.0" ?><svg data-name="Layer 2" height="32" id="b" viewBox="0 0 32 32" width="32" xmlns="http://www.w3.org/2000/svg"><path d="M16,29c-.149,0-13-6.283-13-16.45,0-4.433,1.627-7.554,4.353-8.349,2.732-.796,5.9,.945,8.647,4.691,2.746-3.746,5.912-5.488,8.647-4.691,2.726,.795,4.353,3.916,4.353,8.349,0,10.167-12.851,16.45-13,16.45ZM8.698,6.011c-.271,0-.533,.036-.786,.109-1.796,.524-2.913,2.987-2.913,6.429,0,7.9,8.908,13.189,11,14.323,2.092-1.133,11-6.422,11-14.323,0-3.442-1.116-5.905-2.913-6.429-2.086-.608-4.86,1.339-7.244,5.081-.367,.576-1.319,.576-1.687,0-2.096-3.289-4.494-5.19-6.458-5.19Z"/></svg>